<?xml version="1.0" encoding="UTF-8" standalone="no"?>
<!-- Created with Inkscape (http://www.inkscape.org/) -->

<svg
   width="74.438873mm"
   height="29.989914mm"
   viewBox="0 0 74.438873 29.989914"
   version="1.1"
   id="svg5"
   xmlns="http://www.w3.org/2000/svg"
   xmlns:svg="http://www.w3.org/2000/svg">
  <defs
     id="defs2" />
  <g
     id="layer1"
     transform="translate(-218.57914,-112.33902)">
    <path
       id="path1119"
       style="font-size:19.7556px;font-family:Bebas;-inkscape-font-specification:'Bebas, Normal';text-align:center;text-anchor:middle;fill:#ffffff;fill-opacity:1;stroke:none;stroke-width:1.7;stroke-linecap:round;stroke-linejoin:round;stroke-opacity:1;paint-order:markers stroke fill"
       d="m 229.20795,112.33902 c -1.00096,0 -1.81082,0.30962 -2.42983,0.92862 -0.61901,0.60584 -0.92863,1.40925 -0.92863,2.41019 v 7.54683 c 0,1.00095 0.30962,1.81082 0.92863,2.42982 0.61901,0.60584 1.42887,0.90899 2.42983,0.90899 1.00094,0 1.81082,-0.30315 2.42982,-0.90899 0.61901,-0.619 0.92863,-1.42887 0.92863,-2.42982 v -7.54683 c 0,-1.00094 -0.30962,-1.80435 -0.92863,-2.41019 -0.619,-0.619 -1.42888,-0.92862 -2.42982,-0.92862 z m -10.62881,0.19792 v 13.82861 h 5.82807 v -1.97559 h -3.73362 v -11.85302 z m 15.40939,0 2.29185,13.82861 h 2.805 l 2.29185,-13.82861 h -2.09393 l -1.58078,10.86548 -1.58027,-10.86548 z m 9.00876,0 v 13.82861 h 5.9464 v -1.97559 h -3.85248 v -4.04988 h 3.06235 v -1.97559 h -3.06235 v -3.85196 h 3.85248 v -1.97559 z m 11.65561,0 v 13.82861 h 3.27939 c 1.00095,0 1.79789,-0.29617 2.39055,-0.88883 0.59267,-0.60584 0.88884,-1.40925 0.88884,-2.41019 v -7.23057 c 0,-1.00095 -0.29617,-1.79788 -0.88884,-2.39055 -0.59266,-0.60584 -1.3896,-0.90847 -2.39055,-0.90847 z m 8.65322,0 v 13.82861 h 5.94641 v -1.97559 h -3.85248 v -4.04988 h 3.06183 v -1.97559 h -3.06183 v -3.85196 h 3.85248 v -1.97559 z m 9.5219,0 -2.29185,13.82861 h 2.09445 l 0.45423,-3.06183 h 2.25206 l 0.45424,3.06183 h 2.13372 l -2.29133,-13.82861 z m 5.21519,0 v 1.97559 h 2.29185 v 11.85302 h 2.09393 v -11.85302 h 2.29185 v -1.97559 z m 8.29768,0 v 13.82861 h 2.09393 v -6.02547 h 2.48926 v 6.02547 h 2.09392 v -13.82861 h -2.09392 v 5.82755 h -2.48926 v -5.82755 z m -57.13294,1.77767 c 0.3951,0 0.70472,0.11846 0.92862,0.35553 0.22389,0.23707 0.33538,0.57307 0.33538,1.00769 v 7.54683 c 0,0.43462 -0.11149,0.77062 -0.33538,1.00769 -0.2239,0.23706 -0.53352,0.35553 -0.92862,0.35553 -0.39512,0 -0.70473,-0.11847 -0.92863,-0.35553 -0.22389,-0.23707 -0.3359,-0.57307 -0.3359,-1.00769 v -7.54683 c 0,-0.43462 0.11201,-0.77062 0.3359,-1.00769 0.2239,-0.23707 0.53351,-0.35553 0.92863,-0.35553 z m 27.53888,0.19792 h 1.08676 c 0.40829,0 0.72437,0.11199 0.94826,0.33589 0.2239,0.2239 0.3359,0.53998 0.3359,0.94827 v 7.30911 c 0,0.40828 -0.112,0.72436 -0.3359,0.94826 -0.22389,0.2239 -0.53997,0.3359 -0.94826,0.3359 h -1.08676 z m -16.34629,13.59193 c -1.00094,0 -1.81081,0.30962 -2.42982,0.92863 -0.61901,0.60584 -0.92863,1.40923 -0.92863,2.41019 v 7.54682 c 0,1.00095 0.30962,1.81082 0.92863,2.42983 0.61901,0.60584 1.42888,0.90899 2.42982,0.90899 1.00096,0 1.81082,-0.30315 2.42983,-0.90899 0.61901,-0.61901 0.92863,-1.42888 0.92863,-2.42983 v -7.54682 c 0,-1.00096 -0.30962,-1.80435 -0.92863,-2.41019 -0.61901,-0.61901 -1.42887,-0.92863 -2.42983,-0.92863 z m 17.32556,0 c -1.00094,0 -1.81082,0.30962 -2.42982,0.92863 -0.61902,0.60584 -0.92863,1.40923 -0.92863,2.41019 v 7.54682 c 0,1.00095 0.30961,1.81082 0.92863,2.42983 0.619,0.60584 1.42888,0.90899 2.42982,0.90899 1.00095,0 1.81134,-0.30315 2.43034,-0.90899 0.61902,-0.61901 0.92811,-1.42888 0.92811,-2.42983 v -7.54682 c 0,-1.00096 -0.30909,-1.80435 -0.92811,-2.41019 -0.619,-0.61901 -1.42939,-0.92863 -2.43034,-0.92863 z m 15.90342,0 c -0.98777,0 -1.76479,0.30962 -2.33112,0.92863 -0.56633,0.60584 -0.84956,1.42916 -0.84956,2.46961 0,0.76389 0.18468,1.46822 0.55345,2.11357 0.38194,0.64535 1.08628,1.45574 2.11357,2.43034 0.76388,0.72438 1.27111,1.29033 1.52135,1.69861 0.26341,0.40828 0.39481,0.83636 0.39481,1.28416 0,0.40828 -0.12493,0.73083 -0.37517,0.9679 -0.23706,0.23706 -0.55962,0.35605 -0.9679,0.35605 -0.42145,0 -0.75098,-0.14486 -0.98805,-0.4346 -0.23707,-0.28975 -0.35554,-0.68498 -0.35554,-1.18546 v -0.51366 l -2.01486,0.21704 v 0.49403 c 0,0.65851 0.13838,1.2449 0.41496,1.75854 0.28975,0.51365 0.69145,0.91535 1.2051,1.2051 0.51364,0.28974 1.09951,0.4346 1.75803,0.4346 0.65852,0 1.24439,-0.14486 1.75803,-0.4346 0.51365,-0.28975 0.90888,-0.69145 1.18546,-1.2051 0.28975,-0.51364 0.4346,-1.10003 0.4346,-1.75854 0,-0.75072 -0.19064,-1.43565 -0.57258,-2.05466 -0.36877,-0.63218 -1.06716,-1.46196 -2.09444,-2.48925 -0.75072,-0.75072 -1.25743,-1.32365 -1.52084,-1.71876 -0.26341,-0.40828 -0.39533,-0.82938 -0.39533,-1.26401 0,-0.43462 0.0985,-0.76415 0.29611,-0.98805 0.19755,-0.22389 0.48079,-0.3359 0.84956,-0.3359 0.36877,0 0.65201,0.13838 0.84956,0.41496 0.19755,0.27658 0.29662,0.67828 0.29662,1.2051 v 0.39532 l 2.01487,-0.21755 v -0.35554 c 0,-1.04046 -0.28323,-1.87024 -0.84956,-2.48925 -0.56633,-0.61901 -1.34335,-0.92863 -2.33113,-0.92863 z m -45.00293,0.19792 V 142.131 h 2.09393 v -5.70922 h 1.08623 l 1.52136,5.70922 h 2.17299 l -1.75803,-6.18361 c 0.46096,-0.27657 0.81636,-0.65836 1.0666,-1.14566 0.25024,-0.48731 0.37569,-1.04679 0.37569,-1.67897 v -1.52135 c 0,-1.00095 -0.29668,-1.79788 -0.88935,-2.39056 -0.59267,-0.60583 -1.38909,-0.90847 -2.39004,-0.90847 z m 17.24649,0 V 142.131 h 3.49643 c 1.00094,0 1.79788,-0.29617 2.39055,-0.88884 0.59266,-0.60583 0.88883,-1.40923 0.88883,-2.41019 v -1.12603 c 0,-0.65852 -0.13786,-1.21852 -0.41444,-1.67948 -0.26341,-0.46097 -0.65218,-0.8099 -1.16582,-1.04696 0.9351,-0.52682 1.4025,-1.40938 1.4025,-2.64739 v -0.7307 c 0,-1.00095 -0.29617,-1.79788 -0.88884,-2.39056 -0.59267,-0.60583 -1.3896,-0.90847 -2.39055,-0.90847 z m 16.65376,0 v 1.97559 h 2.29185 V 142.131 h 2.09393 v -11.85303 h 2.29185 v -1.97559 z m -4.80074,1.77767 c 0.39512,0 0.70473,0.11847 0.92863,0.35554 0.22389,0.23706 0.33589,0.57306 0.33589,1.00769 v 7.54682 c 0,0.43462 -0.112,0.77011 -0.33589,1.00718 -0.2239,0.23706 -0.53351,0.35605 -0.92863,0.35605 -0.3951,0 -0.70421,-0.11899 -0.92811,-0.35605 -0.22389,-0.23707 -0.33589,-0.57256 -0.33589,-1.00718 v -7.54682 c 0,-0.43463 0.112,-0.77063 0.33589,-1.00769 0.2239,-0.23707 0.53301,-0.35554 0.92811,-0.35554 z m -27.00558,0.19792 h 1.08623 c 0.40828,0 0.72437,0.11201 0.94827,0.3359 0.22389,0.2239 0.33589,0.53998 0.33589,0.94826 v 1.5999 c 0,0.40829 -0.112,0.72437 -0.33589,0.94827 -0.2239,0.2239 -0.53999,0.33589 -0.94827,0.33589 h -1.08623 z m 17.24649,0 h 1.12603 c 0.40828,0 0.72436,0.11201 0.94826,0.3359 0.22389,0.2239 0.3359,0.53998 0.3359,0.94826 v 0.98754 c 0,0.50047 -0.12494,0.87579 -0.37517,1.12603 -0.23707,0.23707 -0.60592,0.35553 -1.1064,0.35553 h -0.92862 z m -25.54366,1.54099 v 2.78536 h -2.78587 v 1.541 h 2.78587 v 2.78536 h 1.54047 v -2.78536 h 2.78588 v -1.541 h -2.78588 v -2.78536 z m 25.54366,4.18786 h 1.10639 c 0.50047,0 0.86933,0.12545 1.10639,0.37569 0.25024,0.23707 0.37517,0.6054 0.37517,1.10588 v 1.38286 c 0,0.40828 -0.11199,0.72437 -0.33589,0.94826 -0.2239,0.2239 -0.53999,0.3359 -0.94827,0.3359 h -1.30379 z" />
  </g>
</svg>
