<?xml version="1.0" encoding="UTF-8" standalone="no"?>
<!-- Created with Inkscape (http://www.inkscape.org/) -->

<svg
   width="43.915619mm"
   height="56.041786mm"
   viewBox="0 0 43.915619 56.041786"
   version="1.1"
   id="svg5"
   xml:space="preserve"
   xmlns:inkscape="http://www.inkscape.org/namespaces/inkscape"
   xmlns:sodipodi="http://sodipodi.sourceforge.net/DTD/sodipodi-0.dtd"
   xmlns="http://www.w3.org/2000/svg"
   xmlns:svg="http://www.w3.org/2000/svg"><sodipodi:namedview
     id="namedview7"
     pagecolor="#ffffff"
     bordercolor="#cccccc"
     borderopacity="1"
     inkscape:showpageshadow="0"
     inkscape:pageopacity="1"
     inkscape:pagecheckerboard="0"
     inkscape:deskcolor="#d1d1d1"
     inkscape:document-units="mm"
     showgrid="false" /><defs
     id="defs2" /><g
     inkscape:label="Layer 1"
     inkscape:groupmode="layer"
     id="layer1"
     transform="translate(-289.12827,2.5228841)"><path
       style="fill:#ffffff;fill-opacity:1;stroke-width:1"
       d="m 314.99704,52.811448 c 2.28895,-1.184407 4.05435,-3.590438 4.4433,-6.055685 l 0.17742,-1.124479 h -8.38018 -8.38018 l 0.17454,0.992187 c 0.53659,3.05018 2.45647,5.341416 5.53798,6.609183 1.29145,0.531321 5.06411,0.284076 6.42712,-0.421206 z m 4.22234,-8.832175 c 0.18218,-0.145899 0.33073,-0.837499 0.33073,-1.539772 0,-0.701196 0.0975,-1.335156 0.21664,-1.408795 0.11915,-0.07364 1.93485,-0.216218 4.03489,-0.316839 4.34836,-0.208346 5.49856,-0.599345 7.42236,-2.523143 1.85914,-1.859143 1.81986,-1.549771 1.81986,-14.331046 0,-9.780331 -0.0628,-11.681534 -0.42663,-12.906936 -1.79517,-6.047063 -7.07908,-11.12881705 -13.46316,-12.948079 -1.61401,-0.459946 -2.65301,-0.527547 -8.10806,-0.527547 -7.10236,0 -8.06489,0.176337 -12.00111,2.19862395 -2.96671,1.52418505 -6.46273,5.02361705 -8.00755,8.01536405 -1.89455,3.66902 -1.91506,3.844907 -1.90852,16.36608 0.007,12.631328 -0.0425,12.307661 2.17691,14.345408 1.70358,1.564129 3.07811,2.201341 4.75205,2.202976 0.76978,7.94e-4 2.56047,0.07824 3.97929,0.172199 l 2.57969,0.170828 v 1.28301 c 0,0.922067 0.14608,1.429091 0.51925,1.802265 0.49939,0.499387 0.81062,0.513342 8.13594,0.364759 4.43891,-0.09003 7.75467,-0.264996 7.94742,-0.419356 z M 300.49839,33.226016 c -3.32931,-1.076876 -5.13835,-4.010131 -4.45693,-7.226647 0.85094,-4.016661 5.56703,-5.962597 9.12281,-3.764224 3.83727,2.372399 3.59206,8.37923 -0.42573,10.428951 -1.14955,0.58646 -3.28809,0.869866 -4.24015,0.56192 z"
       id="path858"
       sodipodi:nodetypes="sscccssssssssscsssscssscsssssssss" /></g></svg>
